<svg xmlns="http://www.w3.org/2000/svg" viewBox="0 0 1235.856 707.077"><defs><style>.cls-1{fill:#4fb81c;}.cls-2,.cls-3,.cls-4{fill:#efab1f;}.cls-3{opacity:0.7;}.cls-4{opacity:0.4;}.cls-5{fill:#1d1d1b;}.cls-6{fill:#e35500;}.cls-7{fill:#942582;}.cls-8{fill:#148fcf;}</style></defs><g id="Ebene_2" data-name="Ebene 2"><g id="Layer_1" data-name="Layer 1"><path d="M694.579,606.577v-3a23.906,23.906,0,0,0-16.163,6.274l-22.958-22.957a16.5,16.5,0,1,0-29.777-.443l-20.314,20.314a19.5,19.5,0,1,0-8.288,37.146c.115,0,.228-.006.342-.008l24.666,23.975a42.045,42.045,0,0,0-23.508,37.7v1.5h84v-1.5a41.927,41.927,0,0,0-15.128-32.249l-50.917-50.174a19.358,19.358,0,0,0-2.4-8.185L634.3,594.8a16.47,16.47,0,0,0,12.271.185l25.18,25.181a23.992,23.992,0,0,0,22.823,31.414v-3a21,21,0,0,1,0-42Zm-114,17.834a16.5,16.5,0,1,1,16.5,16.5A16.519,16.519,0,0,1,580.579,624.411Zm98.971,79.666H601.607a39,39,0,0,1,77.943,0Zm-38.971-40.5a41.743,41.743,0,0,0-15.536,2.991l-23.779-23.114a19.547,19.547,0,0,0,15.111-16.244L656.45,666.7A41.759,41.759,0,0,0,640.579,663.577Zm-28.14-51.157a19.657,19.657,0,0,0-4.375-4.11l19.174-19.174a16.634,16.634,0,0,0,4.309,4.177Zm14.736-32.843a13.5,13.5,0,1,1,13.5,13.5A13.515,13.515,0,0,1,627.175,579.577Zm22.23,13.992a16.637,16.637,0,0,0,4.431-4.055l22.5,22.5a24.066,24.066,0,0,0-3.361,5.125Z"/><path class="cls-1" d="M708.966,619.8a15.731,15.731,0,1,0,2.113,7.875A15.737,15.737,0,0,0,708.966,619.8Z"/><path class="cls-2" d="M681.691,619.8h27.275a15.746,15.746,0,0,0-27.275,0Z"/><path class="cls-3" d="M681.691,619.8a15.67,15.67,0,0,0-2.112,7.875h31.5a15.67,15.67,0,0,0-2.113-7.875Z"/><path class="cls-4" d="M681.691,635.548h27.275a15.67,15.67,0,0,0,2.113-7.875h-31.5A15.67,15.67,0,0,0,681.691,635.548Z"/><path class="cls-5" d="M461.327,654.928a6.976,6.976,0,1,1,6.973-6.972A6.983,6.983,0,0,1,461.327,654.928Zm0-10.951a3.976,3.976,0,1,0,3.973,3.979A3.982,3.982,0,0,0,461.327,643.977Zm33.07,4.4v4.267c0,5.924-2.413,8.341-8.331,8.341H436.607c-5.933,0-8.354-2.417-8.354-8.341V646.44h-3v6.208c0,7.631,3.714,11.341,11.354,11.341h49.459c7.624,0,11.331-3.71,11.331-11.341v-1.267Zm28.74-35.2h0l-7.649-13.251c-.106-.184-.221-.357-.338-.531l-.162-.246c-.038-.059-.076-.118-.112-.17-.213-.312-.439-.609-.671-.9l-.048-.06c-.045-.057-.09-.114-.135-.166-.239-.286-.489-.557-.8-.874-.057-.058-.113-.116-.161-.163-.252-.248-.514-.481-.781-.708l-.061-.052c-.078-.066-.157-.133-.239-.2-.247-.2-.5-.384-.745-.556-.146-.1-.291-.2-.448-.3-.22-.142-.442-.276-.663-.4-.2-.116-.406-.229-.615-.337-.182-.093-.368-.181-.555-.267-.256-.117-.514-.23-.777-.333-.156-.061-.312-.117-.466-.171-.293-.1-.589-.2-.9-.287-.115-.032-.231-.062-.346-.09l-.081-.02c-.31-.078-.623-.148-.937-.2-.123-.023-.246-.041-.371-.058l-.1-.015c-.305-.045-.611-.085-.924-.11-.142-.012-.286-.018-.429-.024l-.293-.016c-.157-.01-.314-.02-.474-.02H497.4V529.506c0-7.634-3.707-11.344-11.331-11.344H436.607c-7.64,0-11.354,3.71-11.354,11.342v42.614l-8.75-5.052a7.793,7.793,0,1,0-7.793,13.5l10.545,6.089v-3.464l-9.045-5.223a4.793,4.793,0,1,1,4.793-8.3l10.25,5.918v11.064h3V529.5c0-5.925,2.421-8.342,8.354-8.342h49.459c5.918,0,8.331,2.418,8.331,8.344v63.137H479.988a14.458,14.458,0,0,0-10.324,4.3l-17.289,17.289,1.057,1.06c.651.653,1.333,1.335,1.9,1.9l0,0,1.3,1.294a14.582,14.582,0,0,0,20.569-.021l5.277-5.275H494.4l0,20.671a14.592,14.592,0,0,0,14.536,14.562l.754,0-.008-3-.747,0A11.584,11.584,0,0,1,497.4,633.863l0-23.671H481.23l-6.156,6.153a11.579,11.579,0,0,1-16.162.183l-.166-.166s-.989-.986-2.131-2.13l15.174-15.173a11.479,11.479,0,0,1,8.2-3.415h22.875c.092,0,.182.008.271.013l.375.02c.1,0,.207.008.308.016.246.021.487.054.731.09l.119.017c.083.011.165.022.253.038.251.045.5.1.746.164l.086.021c.086.022.173.042.253.065.241.068.478.147.715.23.123.043.245.087.367.134.208.081.413.171.615.265.149.068.3.139.445.213.163.084.322.173.486.268.181.1.358.209.526.318.116.076.23.153.353.241.2.142.4.29.594.443l.235.2c.212.18.419.365.629.57l.162.167c.205.209.4.425.6.655l.139.175c.185.23.365.465.537.716l.255.389c.079.119.16.237.232.361l6.055,10.491h0l9.874,17.1v-6Zm-95.65,27.25h-3.974a6.693,6.693,0,1,1,0-13.385h3.973a6.693,6.693,0,1,1,0,13.385Zm-3.974-10.385a3.693,3.693,0,0,0,0,7.385h3.975a3.693,3.693,0,1,0,0-7.385Zm8.962-23.316a7.846,7.846,0,0,0,.925-.782,7.794,7.794,0,0,0-5.513-13.3h-3.274a7.794,7.794,0,0,0-5.512,13.3,7.933,7.933,0,0,0,.924.782,7.786,7.786,0,0,0,4.588,14.08h3.279a7.785,7.785,0,0,0,4.583-14.08Zm-7.862-11.085h3.274a4.795,4.795,0,0,1,3.391,8.183,4.622,4.622,0,0,1-3.3,1.4H424.5a4.611,4.611,0,0,1-3.277-1.4,4.794,4.794,0,0,1,3.391-8.182Zm6.665,20.762a4.759,4.759,0,0,1-3.387,1.4h-3.282a4.791,4.791,0,0,1-.057-9.582h3.4a4.792,4.792,0,0,1,3.328,8.179Z"/><path class="cls-6" d="M482.472,613.191l-5.277,5.275a14.582,14.582,0,0,1-20.569.021l-1.3-1.294,0,0c-.566-.566-1.248-1.248-1.9-1.9l-1.057-1.06,17.289-17.289a14.458,14.458,0,0,1,10.324-4.3h8.128V529.57H434.537V596.4a7.736,7.736,0,0,1,0,8.094v4.5a7.709,7.709,0,0,1,0,8.079V634.94h53.579V613.192Z"/><rect class="cls-2" x="434.537" y="529.569" width="53.581" height="26.342"/><rect class="cls-3" x="434.537" y="555.912" width="53.581" height="26.341"/><path class="cls-4" d="M469.664,596.94a14.458,14.458,0,0,1,10.324-4.3h8.13V582.256H434.537v14.137a7.741,7.741,0,0,1,0,8.1V608.6h23.468Z"/><path class="cls-1" d="M522.315,107.084c0,2.947-9.552,6.674-26.25,8.8a233.829,233.829,0,0,1-29.25,1.7h0a233.817,233.817,0,0,1-29.25-1.7c-16.7-2.129-26.25-5.856-26.25-8.8h-3v24c0,4.106,6.017,7.455,17.885,9.953,3.456.728,7.275,1.35,11.365,1.862a239.675,239.675,0,0,0,29.25,1.685h0a239.687,239.687,0,0,0,29.25-1.685c4.09-.512,7.908-1.134,11.364-1.862,11.868-2.5,17.886-5.847,17.886-9.953v-24Z"/><path class="cls-2" d="M522.315,107.084c0,2.947-9.552,6.674-26.25,8.8V142.9c4.09-.512,7.908-1.134,11.364-1.862,11.868-2.5,17.886-5.847,17.886-9.953v-24Z"/><path class="cls-3" d="M466.815,117.584v27a239.687,239.687,0,0,0,29.25-1.685V115.887A233.829,233.829,0,0,1,466.815,117.584Z"/><path class="cls-4" d="M466.815,117.584a233.817,233.817,0,0,1-29.25-1.7V142.9a239.675,239.675,0,0,0,29.25,1.685h0v-27Z"/><path d="M507.429,25.131c-10.865-2.287-25.289-3.547-40.614-3.547s-29.75,1.26-40.615,3.547c-11.868,2.5-17.885,5.847-17.885,9.953v72c0,4.106,6.017,7.455,17.885,9.953,10.865,2.288,25.289,3.547,40.615,3.547s29.749-1.259,40.614-3.547c11.868-2.5,17.886-5.847,17.886-9.953v-72C525.315,30.978,519.3,27.63,507.429,25.131Zm-40.614-.547c34.385,0,55.5,6.116,55.5,10.5s-21.115,10.5-55.5,10.5-55.5-6.115-55.5-10.5S432.428,24.584,466.815,24.584Zm0,93c-34.387,0-55.5-6.115-55.5-10.5V87.715q4.332,3.088,14.885,5.322c10.865,2.288,25.289,3.547,40.615,3.547s29.749-1.259,40.614-3.547q10.553-2.222,14.886-5.322v19.369C522.315,111.469,501.2,117.584,466.815,117.584Zm0-24c-34.387,0-55.5-6.115-55.5-10.5V63.715q4.332,3.088,14.885,5.323c10.865,2.287,25.289,3.546,40.615,3.546s29.749-1.259,40.614-3.546q10.553-2.223,14.886-5.323V83.084C522.315,87.469,501.2,93.584,466.815,93.584Zm0-24c-34.387,0-55.5-6.115-55.5-10.5V39.715q4.332,3.088,14.885,5.323c10.865,2.287,25.289,3.546,40.615,3.546s29.749-1.259,40.614-3.546q10.553-2.223,14.886-5.323V59.084C522.315,63.469,501.2,69.584,466.815,69.584Zm-38.4,34.38a1.5,1.5,0,0,1-1.467,1.2,1.426,1.426,0,0,1-.3-.031c-2.528-.52-4.841-1.093-6.876-1.7a1.5,1.5,0,1,1,.859-2.874c1.952.582,4.18,1.133,6.622,1.636A1.5,1.5,0,0,1,428.418,103.964Zm0-24.073a1.5,1.5,0,0,1-1.771,1.166c-2.521-.519-4.834-1.091-6.875-1.7a1.5,1.5,0,1,1,.857-2.874c1.959.584,4.187,1.135,6.623,1.637A1.5,1.5,0,0,1,428.418,79.891Zm0-23.5a1.5,1.5,0,0,1-1.467,1.2,1.568,1.568,0,0,1-.3-.031c-2.525-.52-4.838-1.093-6.876-1.7a1.5,1.5,0,0,1,.859-2.875c1.954.584,4.182,1.135,6.622,1.637A1.5,1.5,0,0,1,428.418,56.387Z"/><path d="M931.529,166.611a6.375,6.375,0,1,0-6.375-6.375A6.382,6.382,0,0,0,931.529,166.611Zm0-9.75a3.375,3.375,0,1,1-3.375,3.375A3.379,3.379,0,0,1,931.529,156.861Z"/><path d="M1029.508,166.611a6.375,6.375,0,1,0-6.375-6.375A6.382,6.382,0,0,0,1029.508,166.611Zm0-9.75a3.375,3.375,0,1,1-3.375,3.375A3.379,3.379,0,0,1,1029.508,156.861Z"/><path class="cls-7" d="M980.8,198.939v-78c22.5,0,39,17.461,39,39S1003.3,198.939,980.8,198.939Z"/><path class="cls-2" d="M1014.592,140.608c-6.743-12.75-18.795-19.669-33.795-19.669v19.669Z"/><path class="cls-3" d="M980.8,140.608v19.5h39.014c0-7.5-1.9-15-5.219-19.5Z"/><path class="cls-4" d="M980.8,179.608h33.795a36.5,36.5,0,0,0,5.219-19.5H980.8Z"/><path d="M980.811,198.666a38.727,38.727,0,0,1,0-77.454v3a35.727,35.727,0,0,0,0,71.454Zm9.183,29.935,1.3-.172v-9.864a50.375,50.375,0,0,0,9.392-2.476l4.96,8.543,1.208-.492A68.947,68.947,0,0,0,1023.3,214.6l1.026-.8-4.907-8.512a60.292,60.292,0,0,0,6.706-6.7l8.486,4.9.8-1.035a68.886,68.886,0,0,0,9.459-16.48l.487-1.211-8.431-4.844a65.181,65.181,0,0,0,2.447-9.3h9.706l.165-1.312a68.739,68.739,0,0,0,.605-8.89,67.3,67.3,0,0,0-.683-9.511l-.185-1.287h-9.575a51.531,51.531,0,0,0-2.478-9.487l8.244-4.832-.5-1.206a69.042,69.042,0,0,0-9.591-16.439l-.8-1.02-8.153,4.689a60.2,60.2,0,0,0-6.7-6.713l4.681-8.113-1.035-.8a68.834,68.834,0,0,0-16.478-9.464l-1.2-.484-4.705,8.053a50.365,50.365,0,0,0-9.395-2.479V92.044l-1.3-.173a66.039,66.039,0,0,0-18.4.018l-1.3.177v9.247a51.365,51.365,0,0,0-9.4,2.476l-4.659-8.012-1.206.488a68.918,68.918,0,0,0-16.477,9.493l-1.03.8,4.628,8.031a60.055,60.055,0,0,0-6.707,6.7l-8.062-4.654-.8,1.023A68.912,68.912,0,0,0,917,134.077l-.491,1.2,8.13,4.84a51.553,51.553,0,0,0-2.483,9.5h-9.435l-.185,1.287a67.2,67.2,0,0,0-.684,9.511,68.794,68.794,0,0,0,.6,8.889l.165,1.313h9.568a65.063,65.063,0,0,0,2.447,9.305l-8.318,4.791.484,1.208a68.894,68.894,0,0,0,9.441,16.484l.8,1.038,8.39-4.847a60.068,60.068,0,0,0,6.7,6.7l-4.87,8.434,1.023.8a68.9,68.9,0,0,0,16.416,9.569l1.205.494,4.975-8.5a51.35,51.35,0,0,0,9.408,2.478v9.841l1.3.177a66.039,66.039,0,0,0,18.4.018Zm-16.7-12.63-1.291-.181a48.775,48.775,0,0,1-11.243-2.948l-1.187-.451-4.928,8.423a65.921,65.921,0,0,1-13.473-7.856l4.831-8.368-.988-.807a57.02,57.02,0,0,1-8.076-8.075l-.808-.988-8.305,4.8A65.869,65.869,0,0,1,920.086,186l8.25-4.751-.454-1.2a61.179,61.179,0,0,1-2.955-11.192l-.21-1.251h-9.438a63.371,63.371,0,0,1-.425-7.2,64.049,64.049,0,0,1,.482-7.8h9.417l.181-1.291A49.64,49.64,0,0,1,927.883,140l.447-1.178-8.05-4.793a65.911,65.911,0,0,1,7.864-13.48l8,4.615.807-.988a57.01,57.01,0,0,1,8.081-8.076l.987-.806-4.584-7.955a65.94,65.94,0,0,1,13.524-7.79l4.619,7.943,1.19-.452a48.776,48.776,0,0,1,11.243-2.948l1.291-.181V94.7a62.247,62.247,0,0,1,15-.013v9.224l1.292.181a48.731,48.731,0,0,1,11.23,2.949l1.187.451,4.667-7.988a65.877,65.877,0,0,1,13.525,7.766l-4.635,8.032.988.807a57.054,57.054,0,0,1,8.077,8.086l.806.986,8.089-4.652a66.054,66.054,0,0,1,7.877,13.5l-8.163,4.785.451,1.186a49.725,49.725,0,0,1,2.948,11.321l.181,1.291h9.555a64.012,64.012,0,0,1,.482,7.8,63.318,63.318,0,0,1-.425,7.2h-9.576l-.211,1.251a60.976,60.976,0,0,1-2.955,11.192l-.454,1.2,8.361,4.8a65.91,65.91,0,0,1-7.758,13.517l-8.4-4.851-.806.988a57.07,57.07,0,0,1-8.081,8.077l-.987.806,4.867,8.441a65.924,65.924,0,0,1-13.5,7.829l-4.916-8.469-1.191.452a48.728,48.728,0,0,1-11.23,2.949l-1.292.181v9.818a62.247,62.247,0,0,1-15-.013Z"/><path d="M974.854,117.593h12v-12h-12Zm3-9h6v6h-6Z"/><path d="M974.854,214.841h12v-12h-12Zm3-9h6v6h-6Z"/><path class="cls-8" d="M812.1,24a29.976,29.976,0,1,0,4.023,15A29.983,29.983,0,0,0,812.1,24Z"/><path class="cls-4" d="M760.143,24a29.844,29.844,0,0,0-4.024,15h60A29.854,29.854,0,0,0,812.1,24Z"/><path class="cls-3" d="M760.143,54H812.1a29.854,29.854,0,0,0,4.023-15h-60A29.844,29.844,0,0,0,760.143,54Z"/><path class="cls-2" d="M812.1,54H760.143A29.993,29.993,0,0,0,812.1,54Z"/><path d="M813.7,11.7a38.375,38.375,0,0,0-55.17,0,40.442,40.442,0,0,0-11.415,28.225,39.7,39.7,0,0,0,10.743,27.256c7.81,7.925,12.662,21.814,12.662,36.248v1.5h31.19v-1.5c0-14.9,4.37-27.882,11.99-35.613a39.492,39.492,0,0,0,11.415-27.891A40.446,40.446,0,0,0,813.7,11.7Zm-2.137,54.01c-7.907,8.023-12.55,21.161-12.839,36.219H787.619V75.375h-3v26.551H773.507c-.328-14.654-5.44-28.667-13.482-36.826a36.686,36.686,0,0,1-9.906-25.178A37.421,37.421,0,0,1,760.671,13.8a35.375,35.375,0,0,1,50.9,0,37.421,37.421,0,0,1,10.552,26.119A36.507,36.507,0,0,1,811.567,65.707ZM768.119,111h36v3h-36Zm0,9h36v3h-36Zm9,9h-9v3h9v12h18V132h9v-3h-27Zm15,12h-12v-9h12Z"/><path d="M592.389,126.734V106.007h1.983v20.727Z"/><path d="M599.553,126.734V111.982h1.928v2.324a10.9,10.9,0,0,1,2.468-1.839,6.455,6.455,0,0,1,3.165-.772,4.354,4.354,0,0,1,3.288,1.148,4.478,4.478,0,0,1,1.1,3.227v10.664h-1.927V116.425a3.292,3.292,0,0,0-.711-2.317,2.924,2.924,0,0,0-2.229-.759,5.409,5.409,0,0,0-2.659.684,12.239,12.239,0,0,0-2.5,1.886v10.815Z"/><path d="M614.25,113.636v-1.654h2.584v-5.291h1.928v5.291h3.828v1.654h-3.828V122.9a2.9,2.9,0,0,0,.479,1.8,2.223,2.223,0,0,0,1.845.623h.828a2.459,2.459,0,0,0,.717-.1v1.531c-.227.036-.519.074-.875.11a10.308,10.308,0,0,1-1.039.054,4.251,4.251,0,0,1-3-.854,3.743,3.743,0,0,1-.882-2.782v-9.653Z"/><path d="M624.956,119.337a9.156,9.156,0,0,1,.574-3.4,6.991,6.991,0,0,1,1.5-2.379,6.193,6.193,0,0,1,2.071-1.4,6.092,6.092,0,0,1,2.317-.465,5.812,5.812,0,0,1,2.4.492,5.219,5.219,0,0,1,1.9,1.456,7.17,7.17,0,0,1,1.265,2.406,10.84,10.84,0,0,1,.465,3.316v.369H626.883a7.24,7.24,0,0,0,.376,2.432,5.555,5.555,0,0,0,1,1.786,4.25,4.25,0,0,0,3.268,1.5,4.8,4.8,0,0,0,2.7-.694,6.711,6.711,0,0,0,1.893-2.012l1.2.961a7.767,7.767,0,0,1-2.4,2.447,6.444,6.444,0,0,1-3.52.9,6.313,6.313,0,0,1-2.461-.492,5.659,5.659,0,0,1-2.055-1.476,7.474,7.474,0,0,1-1.408-2.407A9.545,9.545,0,0,1,624.956,119.337Zm1.955-1.148h8.654a9.5,9.5,0,0,0-.376-1.932,4.96,4.96,0,0,0-.793-1.567,3.493,3.493,0,0,0-1.272-1.031,3.974,3.974,0,0,0-1.743-.365,4.122,4.122,0,0,0-1.545.3,4.007,4.007,0,0,0-1.346.9,5.1,5.1,0,0,0-1.026,1.519A7.053,7.053,0,0,0,626.911,118.189Z"/><path d="M641.088,126.734V111.982h1.928v2.937h.055a7.5,7.5,0,0,1,2.276-2.308,6.423,6.423,0,0,1,3.575-.916h.342l-.191,1.818h-.287a1.327,1.327,0,0,1-.192-.013.87.87,0,0,0-.109-.014,5.506,5.506,0,0,0-3.213.955,7,7,0,0,0-2.256,2.715v9.578Z"/><path d="M652.149,126.734V111.982h1.928v2.324a10.919,10.919,0,0,1,2.467-1.839,6.46,6.46,0,0,1,3.165-.772A4.357,4.357,0,0,1,663,112.843a4.478,4.478,0,0,1,1.1,3.227v10.664H662.17V116.425a3.287,3.287,0,0,0-.711-2.317,2.92,2.92,0,0,0-2.228-.759,5.409,5.409,0,0,0-2.659.684,12.239,12.239,0,0,0-2.5,1.886v10.815Z"/><path d="M667.571,119.337a9.156,9.156,0,0,1,.574-3.4,6.991,6.991,0,0,1,1.5-2.379,6.193,6.193,0,0,1,2.071-1.4,6.093,6.093,0,0,1,2.318-.465,5.807,5.807,0,0,1,2.4.492,5.219,5.219,0,0,1,1.9,1.456,7.152,7.152,0,0,1,1.265,2.406,10.809,10.809,0,0,1,.465,3.316v.369H669.5a7.266,7.266,0,0,0,.375,2.432,5.555,5.555,0,0,0,1,1.786,4.25,4.25,0,0,0,3.268,1.5,4.8,4.8,0,0,0,2.7-.694,6.726,6.726,0,0,0,1.894-2.012l1.2.961a7.756,7.756,0,0,1-2.4,2.447,6.444,6.444,0,0,1-3.52.9,6.313,6.313,0,0,1-2.461-.492,5.659,5.659,0,0,1-2.055-1.476,7.492,7.492,0,0,1-1.408-2.407A9.568,9.568,0,0,1,667.571,119.337Zm1.955-1.148h8.654a9.369,9.369,0,0,0-.376-1.932,4.94,4.94,0,0,0-.793-1.567,3.49,3.49,0,0,0-1.271-1.031,3.98,3.98,0,0,0-1.743-.365,4.115,4.115,0,0,0-1.545.3,4,4,0,0,0-1.347.9,5.1,5.1,0,0,0-1.025,1.519A7.052,7.052,0,0,0,669.526,118.189Z"/><path d="M682.131,113.636v-1.654h2.584v-5.291h1.928v5.291h3.828v1.654h-3.828V122.9a2.9,2.9,0,0,0,.479,1.8,2.223,2.223,0,0,0,1.845.623h.827a2.462,2.462,0,0,0,.718-.1v1.531c-.227.036-.519.074-.875.11a10.308,10.308,0,0,1-1.039.054,4.251,4.251,0,0,1-3-.854,3.743,3.743,0,0,1-.882-2.782v-9.653Z"/><path d="M583.55,155.365a9.342,9.342,0,0,1,.533-3.275,7.147,7.147,0,0,1,1.441-2.406,6.011,6.011,0,0,1,2.131-1.483,6.7,6.7,0,0,1,2.588-.506,6.614,6.614,0,0,1,2.559.506,6.044,6.044,0,0,1,2.128,1.483,7.153,7.153,0,0,1,1.444,2.406,10.328,10.328,0,0,1,0,6.556,7.243,7.243,0,0,1-1.444,2.406,5.989,5.989,0,0,1-2.128,1.491,6.741,6.741,0,0,1-5.12,0,6.093,6.093,0,0,1-2.144-1.491,7.1,7.1,0,0,1-1.455-2.406A9.325,9.325,0,0,1,583.55,155.365Zm1.928-.028a8.927,8.927,0,0,0,.294,2.325,5.774,5.774,0,0,0,.9,1.921,4.542,4.542,0,0,0,1.5,1.319,4.623,4.623,0,0,0,4.067.041,4.453,4.453,0,0,0,1.485-1.251,5.708,5.708,0,0,0,.939-1.9,8.757,8.757,0,0,0,.321-2.455,8.381,8.381,0,0,0-.308-2.29,6.025,6.025,0,0,0-.9-1.9,4.5,4.5,0,0,0-1.472-1.306,4.163,4.163,0,0,0-2.06-.492,4.356,4.356,0,0,0-2.006.451,4.431,4.431,0,0,0-1.5,1.244,5.629,5.629,0,0,0-.939,1.9A8.56,8.56,0,0,0,585.478,155.337Z"/><path d="M598.794,149.636v-1.654h2.584v-2.215q0-3.786,4.225-3.787c.183,0,.383.005.6.014a3.189,3.189,0,0,1,.519.053v1.587a4.136,4.136,0,0,0-.458-.041c-.2-.008-.371-.013-.526-.013a3.041,3.041,0,0,0-1.75.467,1.891,1.891,0,0,0-.684,1.679v2.256h3.254v1.654h-3.254v13.1h-1.928v-13.1Z"/><path d="M613.724,143.826v-1.819h15.381v1.819h-6.7v18.908h-1.983V143.826Z"/><path d="M632.3,162.734V142.007h1.928v8.3a10.9,10.9,0,0,1,2.468-1.839,6.455,6.455,0,0,1,3.165-.772,4.354,4.354,0,0,1,3.288,1.148,4.478,4.478,0,0,1,1.1,3.227v10.664h-1.927V152.425a3.292,3.292,0,0,0-.711-2.317,2.924,2.924,0,0,0-2.229-.759,5.409,5.409,0,0,0-2.659.684,12.239,12.239,0,0,0-2.5,1.886v10.815Z"/><path d="M648.683,144.564v-2.078h2.051v2.078Zm.055,18.17V147.982h1.928v14.752Z"/><path d="M655.3,162.734V147.982h1.928v2.324a10.9,10.9,0,0,1,2.468-1.839,6.455,6.455,0,0,1,3.165-.772,4.353,4.353,0,0,1,3.288,1.148,4.478,4.478,0,0,1,1.1,3.227v10.664h-1.927V152.425a3.292,3.292,0,0,0-.711-2.317,2.924,2.924,0,0,0-2.229-.759,5.409,5.409,0,0,0-2.659.684,12.239,12.239,0,0,0-2.5,1.886v10.815Z"/><path d="M669.916,164.669a2.985,2.985,0,0,1,.724-2,4.834,4.834,0,0,1,2.024-1.342,1.9,1.9,0,0,1-1.286-1.881,1.848,1.848,0,0,1,.481-1.229,4.166,4.166,0,0,1,1.283-.968,4.774,4.774,0,0,1-1.654-1.771,5.459,5.459,0,0,1-.144-4.621,5.041,5.041,0,0,1,1.217-1.675,5.657,5.657,0,0,1,1.839-1.094,6.624,6.624,0,0,1,2.324-.4,6.693,6.693,0,0,1,2.349.4,5.485,5.485,0,0,1,1.843,1.121,6.982,6.982,0,0,1,1.569-.854,7.184,7.184,0,0,1,1.827-.485V149.8a8.833,8.833,0,0,0-1.343.108,5.666,5.666,0,0,0-1.344.377,4.6,4.6,0,0,1,.855,2.787,5.012,5.012,0,0,1-.448,2.149,4.922,4.922,0,0,1-1.215,1.636A5.279,5.279,0,0,1,679,157.891a7.007,7.007,0,0,1-2.274.359,6.639,6.639,0,0,1-2.379-.411,2.712,2.712,0,0,0-.854.526.974.974,0,0,0-.322.729.786.786,0,0,0,.459.728,5.425,5.425,0,0,0,1.72.4l3.222.246a8.13,8.13,0,0,1,3.869,1.115,2.976,2.976,0,0,1,1.312,2.625,3.269,3.269,0,0,1-.5,1.792,4.036,4.036,0,0,1-1.4,1.311,7.529,7.529,0,0,1-2.144.8,12.673,12.673,0,0,1-2.765.281,10.843,10.843,0,0,1-5.325-1A3.049,3.049,0,0,1,669.916,164.669Zm1.873-.241a1.952,1.952,0,0,0,1.278,1.8,9.827,9.827,0,0,0,4.067.625,7.652,7.652,0,0,0,3.541-.679,2.021,2.021,0,0,0,1.285-1.792,1.748,1.748,0,0,0-.917-1.6,7.592,7.592,0,0,0-3.091-.706l-2.921-.238-.782-.083a3.844,3.844,0,0,0-1.859,1.115A2.391,2.391,0,0,0,671.789,164.428Zm.984-11.387a3.549,3.549,0,0,0,1.08,2.72,4.656,4.656,0,0,0,5.776.016,3.5,3.5,0,0,0,1.06-2.679,3.82,3.82,0,0,0-1.032-2.824,4.631,4.631,0,0,0-5.831,0A3.7,3.7,0,0,0,672.773,153.041Z"/><path d="M686.021,160.4l1.23-1.122a6.589,6.589,0,0,0,1.949,1.56,5.648,5.648,0,0,0,2.645.575,5.093,5.093,0,0,0,2.871-.665,2.189,2.189,0,0,0,.971-1.926,2.029,2.029,0,0,0-.957-1.823,10.492,10.492,0,0,0-3.1-1.125l-2.212-.689a5.171,5.171,0,0,1-1.629-.8,3.18,3.18,0,0,1-.964-1.161,3.8,3.8,0,0,1-.322-1.652,3.412,3.412,0,0,1,.335-1.484,3.629,3.629,0,0,1,.978-1.239,4.833,4.833,0,0,1,1.565-.842,6.73,6.73,0,0,1,2.126-.307,7.845,7.845,0,0,1,3.2.574,7.517,7.517,0,0,1,2.269,1.56l-1.094,1.286a6.514,6.514,0,0,0-1.9-1.327,5.664,5.664,0,0,0-2.406-.494,5.182,5.182,0,0,0-1.477.182,2.861,2.861,0,0,0-.977.485,2,2,0,0,0-.561.687,1.828,1.828,0,0,0-.184.8,1.786,1.786,0,0,0,.832,1.595,8.973,8.973,0,0,0,2.77.991l2.416.736a5.545,5.545,0,0,1,1.769.869,3.461,3.461,0,0,1,1.055,1.289,4.423,4.423,0,0,1,.345,1.864,3.609,3.609,0,0,1-.437,1.792,4.1,4.1,0,0,1-1.19,1.331,5.33,5.33,0,0,1-1.8.818,9.189,9.189,0,0,1-2.31.272,7.732,7.732,0,0,1-3.466-.734A6.331,6.331,0,0,1,686.021,160.4Z"/><path d="M640.569,290.275a56.694,56.694,0,1,0,57,56.694A56.912,56.912,0,0,0,640.569,290.275Zm53.887,53.387.105,3c0,.016,0,.032,0,.047h-11.8v-.047l-.071-3a70.8,70.8,0,0,0-6.389-27h8.811A53.148,53.148,0,0,1,694.456,343.662Zm-52.387-27h14.424a120.6,120.6,0,0,1,3.5,27l.04,3v.047H642.069Zm-3,30H621.105a123.09,123.09,0,0,1,3.539-30h14.425Zm-20.964,0h-16.73a67.876,67.876,0,0,1,6.857-30h13.323A127.062,127.062,0,0,0,618.105,346.662Zm.023,3a125.778,125.778,0,0,0,3.277,27l-13.477,0a67.518,67.518,0,0,1-6.509-27Zm3,0h17.942v26.992l-14.579,0A121.867,121.867,0,0,1,621.127,349.662Zm20.942.047H660a121.926,121.926,0,0,1-3.348,26.942l-14.58,0Zm20.929,0h16.7a67.562,67.562,0,0,1-6.479,26.939l-13.48,0A125.907,125.907,0,0,0,663,349.709Zm.035-3v-.047l-.039-3a124.624,124.624,0,0,0-3.412-27h13.323a67.162,67.162,0,0,1,6.782,27l.076,3v.047Zm19.844-33.047H674.8a55.968,55.968,0,0,0-4.161-6.609,45.855,45.855,0,0,0-9.583-9.751A54.233,54.233,0,0,1,682.877,313.662Zm-11.6,0h-12.5c-.627-2.19-1.319-4.283-2.075-6.257-2.129-5.563-4.64-9.864-7.4-12.767C658.137,297.4,665.832,304.255,671.281,313.662Zm-17.372-5.185c.629,1.644,1.208,3.382,1.745,5.185H642.069V293.469C646.353,294.493,650.6,299.826,653.909,308.477Zm-14.84-15.008v20.193H625.484c.537-1.8,1.116-3.541,1.745-5.185C630.54,299.826,634.785,294.492,639.069,293.469ZM624.427,307.4c-.755,1.974-1.447,4.067-2.074,6.257h-12.5c5.45-9.407,13.145-16.258,21.97-19.024C629.068,297.541,626.557,301.842,624.427,307.4Zm-4.349-10.1a45.855,45.855,0,0,0-9.583,9.751,56.091,56.091,0,0,0-4.16,6.609h-8.074A54.237,54.237,0,0,1,620.078,297.3Zm-24.054,19.36h8.811a71.592,71.592,0,0,0-6.461,30h-11.8A53.16,53.16,0,0,1,596.024,316.662Zm-9.386,33h11.779a71.189,71.189,0,0,0,6.131,27l-8.942,0A53.13,53.13,0,0,1,586.638,349.662Zm11.137,30,8.241,0a56.418,56.418,0,0,0,4.479,7.225,45.9,45.9,0,0,0,9.583,9.751A54.249,54.249,0,0,1,597.775,379.662Zm11.728,0,12.68,0c.672,2.415,1.418,4.718,2.244,6.875,2.13,5.564,4.641,9.865,7.4,12.767C622.809,396.474,614.97,389.384,609.5,379.659Zm17.726,5.8c-.7-1.832-1.343-3.774-1.931-5.8l13.771,0v20.814C634.785,399.445,630.54,394.112,627.229,385.46Zm14.84,15.008V379.653l13.772,0c-.588,2.031-1.231,3.975-1.932,5.809C650.6,394.112,646.353,399.445,642.069,400.468Zm14.641-13.936c.827-2.16,1.574-4.464,2.247-6.881l12.684,0c-5.467,9.731-13.309,16.824-22.329,19.651C652.07,396.4,654.581,392.1,656.71,386.532Zm4.349,10.1a45.879,45.879,0,0,0,9.583-9.751,56.379,56.379,0,0,0,4.486-7.237l8.247,0A54.242,54.242,0,0,1,661.059,396.636ZM676.6,376.647a71.223,71.223,0,0,0,6.105-26.938h11.791a53.155,53.155,0,0,1-8.949,26.937Z"/><rect x="639.069" y="417.472" width="3" height="36"/><rect x="639.069" y="240.2" width="3" height="36"/><rect x="711.205" y="346.469" width="36" height="3"/><rect x="1061.013" y="346.469" width="36" height="3"/><rect x="533.932" y="346.469" width="36" height="3"/><rect x="172.521" y="346.469" width="36" height="3"/><rect x="701.744" y="391.511" width="3" height="36" transform="translate(-83.593 617.212) rotate(-45)"/><rect x="576.393" y="266.161" width="3" height="36" transform="translate(-31.671 491.861) rotate(-45)"/><rect x="686.045" y="283.462" width="36" height="3" transform="translate(4.712 581.298) rotate(-45)"/><rect x="560.694" y="408.812" width="36" height="3" transform="translate(-120.639 529.376) rotate(-45)"/><rect x="675.156" y="409.805" width="3" height="36" transform="translate(-114.975 308.638) rotate(-23.742)"/><rect x="603.783" y="247.535" width="3" height="36" transform="translate(-55.683 266.169) rotate(-23.742)"/><rect x="656.295" y="263.298" width="36" height="3" transform="translate(183.035 797.204) rotate(-68.742)"/><rect x="592.021" y="428.509" width="36" height="3" transform="translate(-11.904 842.613) rotate(-68.742)"/><path d="M974.759,305.842l-.1-1.387h-1.395a8.345,8.345,0,0,1-7.86-4.643,15.466,15.466,0,0,1-1.6-6.48v-1.177l-7.3-1.77-46.245-11.22-46.245,11.22-7.3,1.77v1.177a12.49,12.49,0,0,1-1.687,6.788,9.724,9.724,0,0,1-7.77,4.335h-1.4l-.1,1.387a143.16,143.16,0,0,0,5.678,45.2c.982,3.39,2.16,6.967,3.585,10.665A123.8,123.8,0,0,0,865.1,382.192a111.924,111.924,0,0,0,27.119,30.345,115.42,115.42,0,0,0,17.355,11.085l.7.368.7-.368a115.369,115.369,0,0,0,17.355-11.085,111.966,111.966,0,0,0,27.121-30.345,123.584,123.584,0,0,0,9.967-20.25c1.463-3.78,2.67-7.432,3.675-10.9A143.1,143.1,0,0,0,974.759,305.842Zm-8.587,44.468q-.36,1.248-.765,2.542a123.493,123.493,0,0,1-13.5,29.34,108.982,108.982,0,0,1-28.613,30.345,114.1,114.1,0,0,1-13.027,8.063,114.2,114.2,0,0,1-13.028-8.063,108.978,108.978,0,0,1-28.612-30.345,123.645,123.645,0,0,1-13.59-29.632q-.35-1.137-.675-2.25a143.465,143.465,0,0,1-5.662-43,13.686,13.686,0,0,0,6.337-2.707c2.347-1.868,4.388-4.958,4.657-10.088l17.041-4.132,33.532-8.13,33.517,8.13,17.07,4.14c.248,3.142,1.471,7.387,4.553,10.132a11.005,11.005,0,0,0,6.428,2.73A143.513,143.513,0,0,1,966.172,350.31Z"/><path class="cls-7" d="M918.5,337.207c.022,1.628.007,3.263.007,4.89v.4h-16.47v-5.3a8.233,8.233,0,0,1,16.313-1.725A11.319,11.319,0,0,1,918.5,337.207Zm45.885-23.745c-.038,2.2-.158,4.92-.42,8.04a139.509,139.509,0,0,1-4.973,27.12c-.315,1.088-.638,2.16-.982,3.225a113.686,113.686,0,0,1-14.693,30.345c-.45.66-.915,1.305-1.38,1.95a101.464,101.464,0,0,1-31.673,28.388A101.565,101.565,0,0,1,878.8,384.435c-.54-.735-1.072-1.485-1.59-2.243a113.717,113.717,0,0,1-14.707-30.345c-.278-.87-.547-1.755-.81-2.64a139.8,139.8,0,0,1-5.122-27.7c-.263-3.217-.383-6.007-.42-8.25.367-.172.712-.367,1.072-.577a19.461,19.461,0,0,0,9-11.52l44.032-10.68L954.487,301.2a22.891,22.891,0,0,0,.938,2.527A18.976,18.976,0,0,0,964.38,313.462Zm-34.913,31.973a2.744,2.744,0,0,0-2.917-2.918h-2.565v-.45c0-1.59.014-3.187-.008-4.777a20.815,20.815,0,0,0-.195-2.55,13.676,13.676,0,0,0-10.3-11.033c-.728-.165-1.471-.262-2.205-.39h-2.025c-.465.075-.938.143-1.41.225a13.657,13.657,0,0,0-11.273,13.013c-.052,1.822-.015,3.652-.022,5.475v.487h-2.528a2.751,2.751,0,0,0-2.955,2.963v21.562a2.74,2.74,0,0,0,2.925,2.91H926.55a2.744,2.744,0,0,0,2.917-2.917Z"/><path class="cls-2" d="M964.38,313.462c-.038,2.2-.158,4.92-.42,8.04H856.575c-.263-3.217-.383-6.007-.42-8.25.367-.172.712-.367,1.072-.577a19.461,19.461,0,0,0,9-11.52l44.032-10.68L954.487,301.2a22.891,22.891,0,0,0,.938,2.527A18.976,18.976,0,0,0,964.38,313.462Z"/><path class="cls-3" d="M918.5,337.207c.022,1.628.007,3.263.007,4.89v.4h-16.47v-5.3a8.233,8.233,0,0,1,16.313-1.725A11.319,11.319,0,0,1,918.5,337.207Zm-61.92-15.7a139.8,139.8,0,0,0,5.122,27.7c.263.885.532,1.77.81,2.64h28.56V345.48a2.751,2.751,0,0,1,2.955-2.963h2.528v-.487c.007-1.823-.03-3.653.022-5.475a13.657,13.657,0,0,1,11.273-13.013c.472-.082.945-.15,1.41-.225h2.025c.734.128,1.477.225,2.205.39a13.676,13.676,0,0,1,10.3,11.033,20.815,20.815,0,0,1,.195,2.55c.022,1.59.008,3.187.008,4.777v.45h2.565a2.744,2.744,0,0,1,2.917,2.918v6.412h28.538c.344-1.065.667-2.137.982-3.225a139.509,139.509,0,0,0,4.973-27.12Z"/><path class="cls-4" d="M958.005,351.847a113.686,113.686,0,0,1-14.693,30.345h-66.1a113.717,113.717,0,0,1-14.707-30.345h28.56v15.195a2.74,2.74,0,0,0,2.925,2.91H926.55a2.744,2.744,0,0,0,2.917-2.917V351.847Z"/><path class="cls-8" d="M1232.106,312.844h-2.256v-3.757a3.754,3.754,0,0,0-3.75-3.75h-5.625l-6.745-15.128a5,5,0,0,0-4.535-2.817H1192.45a5.018,5.018,0,0,0-4.535,2.825l-6.75,15.12h-5.627a3.754,3.754,0,0,0-3.75,3.75v3.757h-2.256a3.755,3.755,0,0,0-3.75,3.75v6.782a3.755,3.755,0,0,0,3.75,3.75h2.256v3.006a3.754,3.754,0,0,0,3.75,3.75h6.009v5.6a3.755,3.755,0,0,0,3.75,3.75h31.044a3.755,3.755,0,0,0,3.75-3.75v-5.6h6.009a3.754,3.754,0,0,0,3.75-3.75v-3.006h2.256a3.755,3.755,0,0,0,3.75-3.75v-6.782A3.755,3.755,0,0,0,1232.106,312.844Zm-37.083-7.507,2.016-4.97a2.035,2.035,0,0,1,1.791-1.038h3.982a2.015,2.015,0,0,1,1.779,1l2.03,5.008Z"/><path class="cls-2" d="M1175.538,333.882h6.009v5.6a3.755,3.755,0,0,0,3.75,3.75h31.044a3.755,3.755,0,0,0,3.75-3.75v-5.6h6.009a3.754,3.754,0,0,0,3.75-3.75v-.879h-58.062v.879A3.754,3.754,0,0,0,1175.538,333.882Z"/><path class="cls-3" d="M1165.782,323.376a3.755,3.755,0,0,0,3.75,3.75h2.256v2.135h58.062v-2.135h2.256a3.755,3.755,0,0,0,3.75-3.75v-6.782a3.7,3.7,0,0,0-.243-1.292h-69.587a3.7,3.7,0,0,0-.244,1.292Z"/><path class="cls-4" d="M1232.106,312.844h-2.256v-3.757a3.754,3.754,0,0,0-3.75-3.75h-5.625l-1.779-3.99H1205l1.617,3.99h-11.6l1.618-3.99h-13.7l-1.781,3.99h-5.627a3.754,3.754,0,0,0-3.75,3.75v3.757h-2.256a3.745,3.745,0,0,0-3.508,2.462h69.59A3.746,3.746,0,0,0,1232.106,312.844Z"/><path d="M1212.584,343.235v62.479l-11.438,11.439-12.088-12.059,6.377-6.381-6.375-6.375,6.375-6.376-6.375-6.375,6.375-6.375-6.375-6.375,4.805-4.806h-1.06a3.755,3.755,0,0,1-3.75-3.75V343.235h3v15.046a.75.75,0,0,0,.75.75h8.3l-7.805,7.806,6.375,6.375-6.375,6.375,6.375,6.375-6.375,6.376,6.375,6.375-6.374,6.378,7.84,7.821,8.441-8.44V343.235Z"/><path d="M896.854,553.956h17.072a18.266,18.266,0,0,0-5.652,6h-11.42v3h13.215l.42-.807a15,15,0,0,1,26.729,0l.421.807h86.43l.42-.807a15,15,0,0,1,26.729,0l.421.807h13.215v-3h-11.42a18.266,18.266,0,0,0-5.652-6h17.072v-3h-168Zm131.072,0a18.266,18.266,0,0,0-5.652,6h-82.84a18.266,18.266,0,0,0-5.652-6Zm21.678-54h-29.75v45h45V526.937Zm-17.75,3h16l13.565,24h-29.565Zm-9,0h6v24h-6Zm39,39h-39v-12h39Zm-138,18a9,9,0,1,0,9,9A9.01,9.01,0,0,0,923.854,559.956Zm0,15a6,6,0,1,1,6-6A6.007,6.007,0,0,1,923.854,574.956Zm114-15a9,9,0,1,0,9,9A9.01,9.01,0,0,0,1037.854,559.956Zm0,15a6,6,0,1,1,6-6A6.007,6.007,0,0,1,1037.854,574.956Z"/><rect class="cls-6" x="925.354" y="456.456" width="60" height="117" transform="translate(440.398 1470.31) rotate(-90)"/><rect class="cls-2" x="947.854" y="478.956" width="15" height="117" transform="translate(417.898 1492.81) rotate(-90)"/><rect class="cls-3" x="947.854" y="463.956" width="15" height="117" transform="translate(432.898 1477.81) rotate(-90)"/><rect class="cls-4" x="947.854" y="448.956" width="15" height="117" transform="translate(447.898 1462.81) rotate(-90)"/><path class="cls-1" d="M781.25,570.332c0-5.433,2.18-9.837,4.869-9.84v-10.6h-9.225a19.515,19.515,0,0,0-16.974,10.327l0,.01a19.371,19.371,0,0,0-2.283,8.868v22.089h28.487V580.172C783.43,580.169,781.25,575.765,781.25,570.332Z"/><path class="cls-2" d="M759.92,560.216h26.2V549.892h-9.3A19.515,19.515,0,0,0,759.92,560.216Z"/><path class="cls-3" d="M781.25,570.332c0-5.433,2.18-9.837,4.869-9.84v-.278h-26.2v0l0,.01a19.371,19.371,0,0,0-2.283,8.868v1.445h23.624C781.255,570.47,781.25,570.4,781.25,570.332Z"/><path class="cls-4" d="M781.256,570.534H757.632v10.325h28.487v-.687C783.464,580.169,781.309,575.873,781.256,570.534Z"/><path class="cls-5" d="M814.607,625.247a28.5,28.5,0,0,1-56.957-.027c-.017-.31-.025-28.029-.025-28.029h3s.007,27.615.022,27.9a25.5,25.5,0,0,0,50.967.026c.016-.312,0-33.925,0-33.925h-25.5v-3h25.5v-18.81a16.514,16.514,0,0,0-16.494-16.5h-3.008v-3h3.008a19.511,19.511,0,0,1,19.487,19.5C814.6,624.9,814.625,624.9,814.607,625.247Zm-22.113-54.915c0-6.465-2.739-11.34-6.372-11.34s-6.372,4.875-6.372,11.34,2.74,11.341,6.372,11.341S792.494,576.8,792.494,570.332Zm-3,0c0,5.091-2,8.34-3.372,8.34s-3.372-3.249-3.372-8.34,2-8.34,3.372-8.34S789.494,565.241,789.494,570.332ZM781.65,520.9c-4.761-3.362-9.258-6.537-9.258-13.434v-.025h-3v.025c0,8.451,5.593,12.4,10.528,15.885,4.517,3.19,8.418,5.945,8.418,11.6a36.65,36.65,0,0,1-1.29,8.938h3.1a38.659,38.659,0,0,0,1.189-8.938C791.338,527.744,786.413,524.266,781.65,520.9Z"/><polygon class="cls-6" points="46.5 357.622 46.5 316.707 43.939 316.707 25.5 325.52 0 337.707 0 415.707 25.5 415.707 51 415.707 76.5 415.707 102 415.707 102 337.707 76.5 325.52 58.062 316.707 55.5 316.707 55.5 357.622 64.5 368.082 64.5 378.582 54 372.207 51 372.207 48 372.207 37.5 378.582 37.5 368.082 46.5 357.622"/><polygon class="cls-2" points="76.5 415.707 102 415.707 102 337.707 76.5 325.52 76.5 415.707"/><polygon class="cls-3" points="58.062 316.707 55.5 316.707 55.5 357.622 64.5 368.082 64.5 378.582 54 372.207 51 372.207 51 415.707 76.5 415.707 76.5 325.52 58.062 316.707"/><polygon class="cls-4" points="48 372.207 37.5 378.582 37.5 368.082 46.5 357.622 46.5 316.707 43.939 316.707 25.5 325.52 25.5 415.707 51 415.707 51 372.207 48 372.207"/><path d="M102,325.717v13.257L57,317.215v39.851l9,10.46v13.722l-12.42-7.541H48.42L36,381.248V367.526l9-10.46V317.233L0,339.367v-13.65l44.99-34.5L45,263.522c0-2.7,1.848-9.815,6.01-9.815S57,260.819,57,263.522l.01,27.695Zm-3,8.474V327.2L54.01,292.7,54,263.523c0-2.739-1.789-6.816-2.99-6.816S48,260.784,48,263.522L47.99,292.7,3,327.2v7.351l45-22.133v45.764l-9,10.46v7.278l8.58-5.21h6.84l8.58,5.21v-7.278l-9-10.46V312.433Z"/><path class="cls-5" d="M419.832,333.851,347,325.116V299.162h20.861c9.241,0,32.858,18.106,35.521,20.171.078.062,7.024,5.543,13.182,11.4ZM350,322.455l61.105,7.328c-4.96-4.448-9.515-8.042-9.57-8.086-7-5.429-26.719-19.535-33.674-19.535H350ZM341.04,324.4l-28.158-3.377.87-1.874c5.805-12.512,13.912-19.989,18.4-19.989h8.892Zm-23.663-5.859,20.663,2.478V302.162h-5.892C329.836,302.162,323.11,307.132,317.377,318.543Zm86.947,73.031a19.284,19.284,0,1,1,19.285-19.284A19.3,19.3,0,0,1,404.324,391.574Zm0-35.568a16.284,16.284,0,1,0,16.285,16.284A16.3,16.3,0,0,0,404.324,356.006Zm-28.3,15.782,0,3.493H342.137l0-4.485H342.1a28.144,28.144,0,0,0-5.844-15.75v5.539a25.154,25.154,0,0,1,2.883,11.711l0,2.985h-.019v3h39.913v-3h-.007V372.29a25.277,25.277,0,0,1,40.81-19.965v-3.688a28.277,28.277,0,0,0-43.806,23.151Zm6.438,31.7h-12v3h12Zm0-12.377h-12v3h12Zm29.9-76.711c-1.284-1-31.574-24.382-42.86-24.382H317.668c-6.417,0-19.6,12.931-26.652,36.313-1.368,4.535-2.393,8.731-3.162,12.541a34.394,34.394,0,0,0,20.918,61.71v-.006h33.657a14.478,14.478,0,0,1-.115-1.776c0-.416.022-.822.055-1.224h-33.62v0A31.389,31.389,0,0,1,287,343.557a105.729,105.729,0,0,0-1.453,17.827v11.735a5.209,5.209,0,0,0,5.2,5.206c1.884,0,3.692-.013,4.767-.024a19.2,19.2,0,1,0-.726-2.994c-1.07.009-2.53.018-4.041.018a2.206,2.206,0,0,1-2.2-2.206V361.384a105.112,105.112,0,0,1,2.027-20.8,31.234,31.234,0,0,1,18.2-5.833v-.01h.827a4.5,4.5,0,1,0,.006-3h-.851v.011a34.2,34.2,0,0,0-17.315,4.7c.657-2.894,1.461-5.987,2.449-9.263,7.139-23.67,20.07-34.179,23.78-34.179h51.838c8.513,0,32.46,17.117,41,23.736,9.82,8.2,25.381,22.98,25.381,27.774v28.555a2.214,2.214,0,0,1-2.209,2.209h-4.057v3h4.057a5.22,5.22,0,0,0,5.209-5.209V344.526C438.887,336.924,416.834,318.126,412.366,314.4Zm-98.532,41.608A16.284,16.284,0,1,1,297.55,372.29,16.3,16.3,0,0,1,313.834,356.006ZM380.966,397.3H370.488v3h10.478a1.5,1.5,0,0,0,0-3Z"/><path class="cls-1" d="M370.488,408.944H349.647c-4.113-.008-7.333-4.465-7.333-10.146s3.22-10.137,7.331-10.145h20.843Z"/><path class="cls-2" d="M349.355,408.923v-20.25c-3.97.212-7.041,4.58-7.041,10.125S345.384,408.708,349.355,408.923Z"/><path class="cls-3" d="M349.647,408.944H356.4V388.653h-6.757c-.1,0-.189.014-.284.019v20.252C349.457,408.929,349.55,408.944,349.647,408.944Z"/><rect class="cls-4" x="356.398" y="388.652" width="7.042" height="20.292"/><path d="M349.361,224.261h-69v-3h69a15,15,0,0,0,0-30h-69v-3h69a18,18,0,0,1,0,36Zm-69-3h-69a15,15,0,0,1,0-30h69v-3h-69a18,18,0,0,0,0,36h69Zm-51-15a9,9,0,1,0-9,9A9.01,9.01,0,0,0,229.361,206.261Zm-3,0a6,6,0,1,1-6-6A6.007,6.007,0,0,1,226.361,206.261Zm27,0a9,9,0,1,0-9,9A9.01,9.01,0,0,0,253.361,206.261Zm-3,0a6,6,0,1,1-6-6A6.007,6.007,0,0,1,250.361,206.261Zm27,0a9,9,0,1,0-9,9A9.01,9.01,0,0,0,277.361,206.261Zm-3,0a6,6,0,1,1-6-6A6.007,6.007,0,0,1,274.361,206.261Zm27,0a9,9,0,1,0-9,9A9.01,9.01,0,0,0,301.361,206.261Zm-3,0a6,6,0,1,1-6-6A6.007,6.007,0,0,1,298.361,206.261Zm27,0a9,9,0,1,0-9,9A9.01,9.01,0,0,0,325.361,206.261Zm-3,0a6,6,0,1,1-6-6A6.007,6.007,0,0,1,322.361,206.261Zm27,0a9,9,0,1,0-9,9A9.01,9.01,0,0,0,349.361,206.261Zm-3,0a6,6,0,1,1-6-6A6.007,6.007,0,0,1,346.361,206.261Z"/><rect class="cls-7" x="223.361" y="128.261" width="45" height="60"/><rect class="cls-7" x="289.361" y="152.261" width="45" height="36"/><rect class="cls-4" x="223.361" y="143.261" width="45" height="15"/><rect class="cls-3" x="223.361" y="158.261" width="45" height="15"/><rect class="cls-2" x="223.361" y="173.261" width="45" height="15"/><rect class="cls-4" x="289.361" y="161.261" width="45" height="9"/><rect class="cls-3" x="289.361" y="170.261" width="45" height="9"/><rect class="cls-2" x="289.361" y="179.261" width="45" height="9"/><path class="cls-8" d="M289.393,503.064h-3.928c-.789-4.706-1.729-9.312-2.8-13.7a145.723,145.723,0,0,0-4.41-14.864l-.013-.034H310.9a131.546,131.546,0,0,1,4.206,14.9c.655,2.945,1.24,5.963,1.732,9.033l.088.561c.259,1.537.481,3.074.69,4.609-.052-.166-.1-.335-.156-.5H306.717l-.115.382L305,508.76l-1.055,3.489-1.209-3.489-1.84-5.314-6.018-17.372Zm29.563,16.095c-.157-4.841-.564-9.729-1.208-14.634h-9.854l-1.28,4.235-1.607,5.314-.965,3.194-1.107-3.194-1.84-5.314-1.841-5.314-4.328-12.493L290.9,503.446l-.348,1.079h-4.83l-.015-.049c.8,4.976,1.385,9.914,1.775,14.683.43,5.246.609,10.273.526,14.9h30.574c.01-.086.021-.172.03-.256.171-1.585.265-3.019.313-4.207h0C319.066,526.149,319.07,522.665,318.956,519.159Z"/><path class="cls-2" d="M318.922,529.6h0c.143-3.445.147-6.929.033-10.435H287.479c.43,5.246.609,10.273.526,14.9h30.574c.01-.086.021-.172.03-.256C318.78,532.217,318.874,530.783,318.922,529.6Z"/><path class="cls-3" d="M287.479,519.159c-.39-4.769-.979-9.707-1.775-14.683l.015.049h4.83l.085-.264h8.9l1.559,4.5,1.84,5.314,1.107,3.194.965-3.194,1.607-5.314,1.28-4.235h9.854c.644,4.905,1.051,9.793,1.208,14.634Zm16.462-6.91L305,508.76l1.359-4.5h-5.181l1.558,4.5Z"/><path class="cls-4" d="M299.254,503.446l.282.815h-8.9l.263-.815,4.029-12.493Zm-9.861-.382,4.42-13.7H282.665c1.071,4.39,2.011,9,2.8,13.7h3.928Zm11.781,1.2h5.181l.247-.815.115-.382h10.746c.053.166.1.335.156.5h0c-.209-1.535-.431-3.072-.69-4.609l-.088-.561c-.492-3.07-1.077-6.088-1.732-9.033h-19.1l4.879,14.084Z"/><path d="M291.789,550.808h-3.252a1.061,1.061,0,0,1-1.058-1.058h0a1.061,1.061,0,0,1,1.058-1.058h3.252a1.061,1.061,0,0,1,1.058,1.058h0A1.061,1.061,0,0,1,291.789,550.808Zm7.37-1.058h0a1.061,1.061,0,0,0-1.058-1.058H294.85a1.061,1.061,0,0,0-1.058,1.058h0a1.061,1.061,0,0,0,1.058,1.058H298.1A1.061,1.061,0,0,0,299.159,549.75Zm6.312,0h0a1.061,1.061,0,0,0-1.058-1.058h-3.251a1.061,1.061,0,0,0-1.058,1.058h0a1.061,1.061,0,0,0,1.058,1.058h3.251A1.061,1.061,0,0,0,305.471,549.75Zm12.625,0h0a1.061,1.061,0,0,0-1.058-1.058h-3.252a1.062,1.062,0,0,0-1.058,1.058h0a1.062,1.062,0,0,0,1.058,1.058h3.252A1.061,1.061,0,0,0,318.1,549.75Zm-6.312,0h0a1.061,1.061,0,0,0-1.058-1.058h-3.252a1.061,1.061,0,0,0-1.058,1.058h0a1.061,1.061,0,0,0,1.058,1.058h3.252A1.061,1.061,0,0,0,311.784,549.75Zm-18.76-2.906h0a1.061,1.061,0,0,0-1.058-1.058h-3.251a1.061,1.061,0,0,0-1.058,1.058h0a1.061,1.061,0,0,0,1.058,1.058h3.251A1.061,1.061,0,0,0,293.024,546.844Zm6.312,0h0a1.061,1.061,0,0,0-1.058-1.058h-3.251a1.061,1.061,0,0,0-1.058,1.058h0a1.061,1.061,0,0,0,1.058,1.058h3.251A1.061,1.061,0,0,0,299.336,546.844Zm6.313,0h0a1.061,1.061,0,0,0-1.058-1.058h-3.252a1.061,1.061,0,0,0-1.058,1.058h0a1.061,1.061,0,0,0,1.058,1.058h3.252A1.061,1.061,0,0,0,305.649,546.844Zm12.624,0h0a1.061,1.061,0,0,0-1.058-1.058h-3.251a1.061,1.061,0,0,0-1.058,1.058h0a1.061,1.061,0,0,0,1.058,1.058h3.251A1.061,1.061,0,0,0,318.273,546.844Zm-6.312,0h0a1.061,1.061,0,0,0-1.058-1.058h-3.252a1.061,1.061,0,0,0-1.058,1.058h0a1.061,1.061,0,0,0,1.058,1.058H310.9A1.061,1.061,0,0,0,311.961,546.844Zm-18.736-2.907h0a1.062,1.062,0,0,0-1.058-1.058h-3.251a1.062,1.062,0,0,0-1.058,1.058h0A1.061,1.061,0,0,0,288.916,545h3.251A1.061,1.061,0,0,0,293.225,543.937Zm6.313,0h0a1.062,1.062,0,0,0-1.058-1.058h-3.252a1.062,1.062,0,0,0-1.058,1.058h0A1.061,1.061,0,0,0,295.228,545h3.252A1.062,1.062,0,0,0,299.538,543.937Zm6.312,0h0a1.062,1.062,0,0,0-1.058-1.058H301.54a1.062,1.062,0,0,0-1.058,1.058h0A1.061,1.061,0,0,0,301.54,545h3.252A1.061,1.061,0,0,0,305.85,543.937Zm12.624,0h0a1.062,1.062,0,0,0-1.058-1.058h-3.251a1.062,1.062,0,0,0-1.058,1.058h0A1.061,1.061,0,0,0,314.165,545h3.251A1.061,1.061,0,0,0,318.474,543.937Zm-25.143-2.906h0a1.061,1.061,0,0,0-1.058-1.058h-3.251a1.061,1.061,0,0,0-1.058,1.058h0a1.061,1.061,0,0,0,1.058,1.058h3.251A1.061,1.061,0,0,0,293.331,541.031Zm6.312,0h0a1.061,1.061,0,0,0-1.058-1.058h-3.251a1.061,1.061,0,0,0-1.058,1.058h0a1.061,1.061,0,0,0,1.058,1.058h3.251A1.061,1.061,0,0,0,299.643,541.031Zm18.937,0h0a1.061,1.061,0,0,0-1.058-1.058h-3.251a1.061,1.061,0,0,0-1.058,1.058h0a1.061,1.061,0,0,0,1.058,1.058h3.251A1.061,1.061,0,0,0,318.58,541.031ZM299.7,538.125h0a1.061,1.061,0,0,0-1.058-1.058H295.4a1.061,1.061,0,0,0-1.058,1.058h0a1.061,1.061,0,0,0,1.058,1.058h3.251A1.061,1.061,0,0,0,299.7,538.125Zm-9.155-33.6.085-.264.263-.815,4.029-12.493,4.328,12.493.282.815,1.559,4.5,1.84,5.314,1.107,3.194.965-3.194,1.607-5.314,1.28-4.235H317.92c-.1-.322-.2-.64-.3-.96h0c-.052-.166-.1-.335-.156-.5H306.717l-.115.382-.247.815L305,508.76l-1.055,3.489-1.209-3.489-1.558-4.5-.282-.815-4.879-14.084-1.139-3.288-1.061,3.288-4.42,13.7h-4.107c.141.469.281.938.418,1.412h0l.015.049Zm36.338,36.414c-2.455,31.563-19.5,38.2-26.721,39.587l-.118.019-18.009,2.4q-1.615.093-3.156.093c-12.37,0-21.06-4.5-27.187-14.009-6.828-9.978-12.839-30.288-16.047-54.281-3.253-28.089-8.409-73.746,27-78.016l.1-.011,17.712-1.467c20.348-.618,30.62,18.483,34.07,26.716,5.039,10.952,8.957,25.45,11,40.759l.087.666A171.773,171.773,0,0,1,326.887,540.939Zm-5.4-36.979s-4.342-27.8-10.774-40.308c-9.029-21.535-22.69-24.422-30.07-24.224l-17.492,1.452c-30.944,3.562-26.319,46.437-23.364,73.317,3.078,23.027,8.974,43.154,15.386,52.524,5.835,9.054,14.017,12.77,26.548,12.061l17.712-2.368c18.789-3.66,22.547-26.25,23.29-35.8v0A167.678,167.678,0,0,0,321.488,503.96ZM251.7,498.8l9.461-1.265a1.5,1.5,0,0,0,1.281-1.677l-.121-.905a1.5,1.5,0,0,0-1.677-1.281l-9.46,1.265a1.5,1.5,0,0,0-1.281,1.676l.121.906A1.5,1.5,0,0,0,251.7,498.8Zm.66,8.056,9.461-1.265a1.5,1.5,0,0,0,1.281-1.676l-.121-.906a1.5,1.5,0,0,0-1.677-1.281L251.845,503a1.5,1.5,0,0,0-1.282,1.677l.122.9A1.5,1.5,0,0,0,252.361,506.858Zm.893,8.061,9.461-1.265A1.5,1.5,0,0,0,264,511.977l-.121-.9a1.5,1.5,0,0,0-1.677-1.281l-9.46,1.265a1.5,1.5,0,0,0-1.281,1.676l.121.906A1.5,1.5,0,0,0,253.254,514.919Zm1.125,8.064,9.461-1.265a1.5,1.5,0,0,0,1.281-1.676l-.121-.906a1.5,1.5,0,0,0-1.677-1.281l-9.46,1.265a1.5,1.5,0,0,0-1.281,1.677l.121.9A1.5,1.5,0,0,0,254.379,522.983Zm1.434,8.07,9.461-1.265a1.5,1.5,0,0,0,1.281-1.677l-.121-.9a1.5,1.5,0,0,0-1.677-1.281l-9.46,1.265a1.5,1.5,0,0,0-1.281,1.676l.121.906A1.5,1.5,0,0,0,255.813,531.053Zm27.332,19.127c-.007.077-.016.155-.024.232l.011.016-.014.01c-1.1,10.647-4.007,23.415-11.618,24.433a6.876,6.876,0,0,1-.916.062c-5.283,0-10.636-6.073-15.54-17.664-4.785-11.307-8.638-26.64-10.848-43.173-4.1-30.683-1.859-64.177,10.379-65.813,7.666-1.026,13.873,10.725,17.722,20.764,4.19,10.924,7.593,25.134,9.582,40.011S284.318,538.54,283.145,550.18Zm-4.347,1.325c-5.736-8.6-10.354-22.848-12.462-38.624-2.2-16.423-1.332-31.956,2.294-41.716-.077-.206-.153-.419-.231-.622-5.357-13.967-10.491-18.489-13.271-18.121-6.139.82-11.693,24.47-6.793,61.121,2.162,16.174,5.91,31.125,10.554,42.1,4.932,11.657,9.458,15.437,12.058,15.091C273.609,570.376,277.189,565.092,278.8,551.505Zm.61-7.314a191.7,191.7,0,0,0-1.668-34.579,195.975,195.975,0,0,0-6.768-31.6c-2.017,9.045-2.231,21.347-.5,34.313C272.132,524.724,275.351,536.054,279.408,544.191Z"/><rect x="700.374" y="291.921" width="125.393" height="3" transform="translate(-53.05 341.585) rotate(-24.411)"/><rect x="515.284" y="236.549" width="3" height="125.393" transform="translate(54.916 677.784) rotate(-69.411)"/><rect x="761.57" y="339.329" width="3" height="125.393" transform="translate(81.627 930.737) rotate(-65.589)"/><rect x="454.088" y="395.702" width="125.393" height="3" transform="translate(-106.674 207.109) rotate(-20.589)"/></g></g></svg>